<?xml version="1.0" encoding="utf-8"?>
<!-- Generator: Adobe Illustrator 16.0.0, SVG Export Plug-In . SVG Version: 6.00 Build 0)  -->
<!DOCTYPE svg PUBLIC "-//W3C//DTD SVG 1.1//EN" "http://www.w3.org/Graphics/SVG/1.1/DTD/svg11.dtd">
<svg version="1.1" id="Calque_2" xmlns="http://www.w3.org/2000/svg" xmlns:xlink="http://www.w3.org/1999/xlink" x="0px" y="0px"
	 width="201.75px" height="58.5px" viewBox="0 0 201.75 58.5" style="enable-background:new 0 0 201.75 58.5;" xml:space="preserve"
	>
<path style="fill:#FFFFFF;" d="M48.75,11.833c-9.757,0-17.667,7.912-17.667,17.667c0,9.757,7.909,17.667,17.667,17.667
	c9.758,0,17.667-7.909,17.667-17.667C66.417,19.745,58.508,11.833,48.75,11.833z M48.417,41.5c-6.535,0-11.833-5.297-11.833-11.833
	c0-6.535,5.298-11.834,11.833-11.834c6.536,0,11.834,5.299,11.834,11.834C60.251,36.203,54.953,41.5,48.417,41.5z"/>
<polygon style="fill:#FFFFFF;" points="64.75,12.667 88.417,12.667 88.417,19 79.917,19 79.75,46.834 73.75,46.834 73.75,19 
	64.75,19 "/>
<rect x="90.75" y="12.667" style="fill:#FFFFFF;" width="6.167" height="34.665"/>
<path style="fill:#FFFFFF;" d="M115.583,12.999h-15v33.833h6V36.373h9.875c0,0,7.875-0.041,7.875-10.875
	S115.583,12.999,115.583,12.999z M116.083,31.165h-9.5V18.832h8.167c0,0,4.5,1.667,4.5,6.333S116.083,31.165,116.083,31.165z"/>
<path style="fill:#FFFFFF;" d="M145.917,46.832l-0.667-34.833h-3.833l-22.834,34.833h6.834l3.333-5.834h10.833v5.834H145.917z
	 M132.75,35.165l7-11.333v11.333H132.75z"/>
<path style="fill:#FFFFFF;" d="M171.583,12.999v6H157.75c0,0-2,0.666-2,3.833s2.5,3,2.5,3s3.499,0,7.333,0s8.334,5,8.334,7.333
	s0,3.501,0,7.167s-6.001,6.666-8.834,6.666h-15.5v-6h14.5c0,0,5,0.667,5-4.333s-4-5.5-4-5.5h-9.666c0,0-5.834-0.833-5.834-8.5
	s7-9.667,7-9.667H171.583z"/>
<path style="fill:#FFFFFF;" d="M198.583,12.999v6H184.75c0,0-2,0.666-2,3.833c0,3.166,2.5,3,2.5,3s3.499,0,7.333,0
	s8.334,5,8.334,7.333s0,3.501,0,7.167s-6.001,6.666-8.834,6.666h-15.5v-6h14.5c0,0,5,0.667,5-4.333s-4-5.5-4-5.5h-9.666
	c0,0-5.834-0.833-5.834-8.5c0-7.667,7-9.667,7-9.667H198.583z"/>
<path style="fill:#FFFFFF;" d="M12.917,1.999c-2-1-4,0.833-4,0.833s-7.5,9-7.5,27.333s8.667,26.667,8.667,26.667
	s2.333,1.5,3.667,0.5s0.5-3.667,0.5-3.667s-6.833-7.834-6.833-22.667S14.25,5.165,14.25,5.165S14.917,2.999,12.917,1.999z"/>
<path style="fill:#FFFFFF;" d="M20.537,8.351c-1.586-0.793-3.172,0.66-3.172,0.66s-5.948,7.139-5.948,21.678
	c0,14.541,6.874,21.15,6.874,21.15s1.851,1.189,2.908,0.396c1.058-0.792,0.396-2.907,0.396-2.907s-5.419-6.213-5.419-17.978
	s5.419-20.488,5.419-20.488S22.124,9.144,20.537,8.351z"/>
<path style="fill:#FFFFFF;" d="M29.074,13.282c-1.593-0.604-3.185,0.502-3.185,0.502s-4.973,5.431-4.973,16.492
	c0,11.063,5.901,16.091,5.901,16.091s1.858,0.904,2.92,0.301c1.062-0.603,0.399-2.212,0.399-2.212s-4.442-4.727-4.442-13.677
	c0-8.95,4.442-15.587,4.442-15.587S30.667,13.886,29.074,13.282z"/>
</svg>
